<?xml version="1.0" encoding="UTF-8" standalone="no"?>
<!DOCTYPE svg PUBLIC "-//W3C//DTD SVG 1.1//EN"
 "http://www.w3.org/Graphics/SVG/1.1/DTD/svg11.dtd">
<!-- Generated by graphviz version 2.40.1 (20161225.0304)
 -->
<!-- Title: foundation&#45;collection Pages: 1 -->
<svg width="485pt" height="302pt"
 viewBox="0.00 0.00 485.28 302.00" xmlns="http://www.w3.org/2000/svg" xmlns:xlink="http://www.w3.org/1999/xlink">
<g id="graph0" class="graph" transform="scale(1 1) rotate(0) translate(4 298)">
<title>foundation&#45;collection</title>
<polygon fill="#ffffff" stroke="transparent" points="-4,4 -4,-298 481.2812,-298 481.2812,4 -4,4"/>
<!-- foundation&#45;selections -->
<g id="node1" class="node">
<title>foundation&#45;selections</title>
<ellipse fill="none" stroke="#000000" cx="227.7365" cy="-190" rx="86.4791" ry="18"/>
<text text-anchor="middle" x="227.7365" y="-185.8" font-family="Times,serif" font-size="14.00" fill="#000000">foundation&#45;selections</text>
</g>
<!-- foundation&#45;collection -->
<g id="node2" class="node">
<title>foundation&#45;collection</title>
<ellipse fill="none" stroke="#000000" cx="227.7365" cy="-276" rx="86.4704" ry="18"/>
<text text-anchor="middle" x="227.7365" y="-271.8" font-family="Times,serif" font-size="14.00" fill="#000000">foundation&#45;collection</text>
</g>
<!-- foundation&#45;selections&#45;&gt;foundation&#45;collection -->
<g id="edge1" class="edge">
<title>foundation&#45;selections&#45;&gt;foundation&#45;collection</title>
<path fill="none" stroke="#000000" d="M227.7365,-208.2384C227.7365,-219.6403 227.7365,-234.5658 227.7365,-247.506"/>
<polygon fill="#000000" stroke="#000000" points="224.2366,-247.7879 227.7365,-257.7879 231.2366,-247.7879 224.2366,-247.7879"/>
<text text-anchor="middle" x="249.1193" y="-228.8" font-family="Times,serif" font-size="14.00" fill="#000000">extends</text>
</g>
<!-- foundation&#45;collection&#45;action -->
<g id="node3" class="node">
<title>foundation&#45;collection&#45;action</title>
<ellipse fill="none" stroke="#000000" cx="227.7365" cy="-104" rx="110.5756" ry="18"/>
<text text-anchor="middle" x="227.7365" y="-99.8" font-family="Times,serif" font-size="14.00" fill="#000000">foundation&#45;collection&#45;action</text>
</g>
<!-- foundation&#45;collection&#45;action&#45;&gt;foundation&#45;selections -->
<g id="edge2" class="edge">
<title>foundation&#45;collection&#45;action&#45;&gt;foundation&#45;selections</title>
<path fill="none" stroke="#000000" d="M227.7365,-122.2384C227.7365,-133.6403 227.7365,-148.5658 227.7365,-161.506"/>
<polygon fill="#000000" stroke="#000000" points="224.2366,-161.7879 227.7365,-171.7879 231.2366,-161.7879 224.2366,-161.7879"/>
<text text-anchor="middle" x="251.2521" y="-142.8" font-family="Times,serif" font-size="14.00" fill="#000000">reacts to</text>
</g>
<!-- foundation.dialog -->
<g id="node4" class="node">
<title>foundation.dialog</title>
<ellipse fill="none" stroke="#000000" cx="72.7365" cy="-18" rx="72.9738" ry="18"/>
<text text-anchor="middle" x="72.7365" y="-13.8" font-family="Times,serif" font-size="14.00" fill="#000000">foundation.dialog</text>
</g>
<!-- foundation.dialog&#45;&gt;foundation&#45;collection&#45;action -->
<g id="edge3" class="edge">
<title>foundation.dialog&#45;&gt;foundation&#45;collection&#45;action</title>
<path fill="none" stroke="#000000" d="M87.1355,-35.7725C96.5187,-46.3714 109.5622,-59.396 123.426,-68 134.3867,-74.8024 146.7982,-80.5169 159.1389,-85.2453"/>
<polygon fill="#000000" stroke="#000000" points="157.9429,-88.5346 168.5369,-88.6706 160.34,-81.9578 157.9429,-88.5346"/>
<text text-anchor="middle" x="173.8918" y="-56.8" font-family="Times,serif" font-size="14.00" fill="#000000">provides action to</text>
</g>
<!-- foundation.link -->
<g id="node5" class="node">
<title>foundation.link</title>
<ellipse fill="none" stroke="#000000" cx="227.7365" cy="-18" rx="64.2795" ry="18"/>
<text text-anchor="middle" x="227.7365" y="-13.8" font-family="Times,serif" font-size="14.00" fill="#000000">foundation.link</text>
</g>
<!-- foundation.link&#45;&gt;foundation&#45;collection&#45;action -->
<g id="edge4" class="edge">
<title>foundation.link&#45;&gt;foundation&#45;collection&#45;action</title>
<path fill="none" stroke="#000000" d="M227.7365,-36.2384C227.7365,-47.6403 227.7365,-62.5658 227.7365,-75.506"/>
<polygon fill="#000000" stroke="#000000" points="224.2366,-75.7879 227.7365,-85.7879 231.2366,-75.7879 224.2366,-75.7879"/>
<text text-anchor="middle" x="277.8918" y="-56.8" font-family="Times,serif" font-size="14.00" fill="#000000">provides action to</text>
</g>
<!-- foundation.pushstate -->
<g id="node6" class="node">
<title>foundation.pushstate</title>
<ellipse fill="none" stroke="#000000" cx="393.7365" cy="-18" rx="83.5895" ry="18"/>
<text text-anchor="middle" x="393.7365" y="-13.8" font-family="Times,serif" font-size="14.00" fill="#000000">foundation.pushstate</text>
</g>
<!-- foundation.pushstate&#45;&gt;foundation&#45;collection&#45;action -->
<g id="edge5" class="edge">
<title>foundation.pushstate&#45;&gt;foundation&#45;collection&#45;action</title>
<path fill="none" stroke="#000000" d="M375.427,-35.6021C363.6876,-46.1368 347.7026,-59.1539 331.7365,-68 319.95,-74.5304 306.7649,-80.1948 293.8461,-84.9748"/>
<polygon fill="#000000" stroke="#000000" points="292.2972,-81.8108 284.0466,-88.4574 294.6413,-88.4066 292.2972,-81.8108"/>
<text text-anchor="middle" x="401.8918" y="-56.8" font-family="Times,serif" font-size="14.00" fill="#000000">provides action to</text>
</g>
</g>
</svg>
