<?xml version="1.0" encoding="UTF-8" standalone="no"?>
<!DOCTYPE svg PUBLIC "-//W3C//DTD SVG 1.1//EN"
 "http://www.w3.org/Graphics/SVG/1.1/DTD/svg11.dtd">
<!-- Generated by graphviz version 2.40.1 (20161225.0304)
 -->
<!-- Title: foundation&#45;collection Pages: 1 -->
<svg width="326pt" height="302pt"
 viewBox="0.00 0.00 325.70 302.00" xmlns="http://www.w3.org/2000/svg" xmlns:xlink="http://www.w3.org/1999/xlink">
<g id="graph0" class="graph" transform="scale(1 1) rotate(0) translate(4 298)">
<title>foundation&#45;collection</title>
<polygon fill="#ffffff" stroke="transparent" points="-4,4 -4,-298 321.7002,-298 321.7002,4 -4,4"/>
<!-- foundation&#45;selections -->
<g id="node1" class="node">
<title>foundation&#45;selections</title>
<ellipse fill="none" stroke="#000000" cx="147.3896" cy="-190" rx="86.4791" ry="18"/>
<text text-anchor="middle" x="147.3896" y="-185.8" font-family="Times,serif" font-size="14.00" fill="#000000">foundation&#45;selections</text>
</g>
<!-- foundation&#45;collection -->
<g id="node2" class="node">
<title>foundation&#45;collection</title>
<ellipse fill="none" stroke="#000000" cx="147.3896" cy="-276" rx="86.4704" ry="18"/>
<text text-anchor="middle" x="147.3896" y="-271.8" font-family="Times,serif" font-size="14.00" fill="#000000">foundation&#45;collection</text>
</g>
<!-- foundation&#45;selections&#45;&gt;foundation&#45;collection -->
<g id="edge1" class="edge">
<title>foundation&#45;selections&#45;&gt;foundation&#45;collection</title>
<path fill="none" stroke="#000000" d="M147.3896,-208.2384C147.3896,-219.6403 147.3896,-234.5658 147.3896,-247.506"/>
<polygon fill="#000000" stroke="#000000" points="143.8897,-247.7879 147.3896,-257.7879 150.8897,-247.7879 143.8897,-247.7879"/>
<text text-anchor="middle" x="168.7725" y="-228.8" font-family="Times,serif" font-size="14.00" fill="#000000">extends</text>
</g>
<!-- foundation&#45;collection&#45;action -->
<g id="node3" class="node">
<title>foundation&#45;collection&#45;action</title>
<ellipse fill="none" stroke="#000000" cx="147.3896" cy="-104" rx="110.5756" ry="18"/>
<text text-anchor="middle" x="147.3896" y="-99.8" font-family="Times,serif" font-size="14.00" fill="#000000">foundation&#45;collection&#45;action</text>
</g>
<!-- foundation&#45;collection&#45;action&#45;&gt;foundation&#45;selections -->
<g id="edge2" class="edge">
<title>foundation&#45;collection&#45;action&#45;&gt;foundation&#45;selections</title>
<path fill="none" stroke="#000000" d="M147.3896,-122.2384C147.3896,-133.6403 147.3896,-148.5658 147.3896,-161.506"/>
<polygon fill="#000000" stroke="#000000" points="143.8897,-161.7879 147.3896,-171.7879 150.8897,-161.7879 143.8897,-161.7879"/>
<text text-anchor="middle" x="170.9053" y="-142.8" font-family="Times,serif" font-size="14.00" fill="#000000">reacts to</text>
</g>
<!-- foundation.link -->
<g id="node4" class="node">
<title>foundation.link</title>
<ellipse fill="none" stroke="#000000" cx="64.3896" cy="-18" rx="64.2795" ry="18"/>
<text text-anchor="middle" x="64.3896" y="-13.8" font-family="Times,serif" font-size="14.00" fill="#000000">foundation.link</text>
</g>
<!-- foundation.link&#45;&gt;foundation&#45;collection&#45;action -->
<g id="edge3" class="edge">
<title>foundation.link&#45;&gt;foundation&#45;collection&#45;action</title>
<path fill="none" stroke="#000000" d="M78.894,-35.5483C87.1868,-45.3357 97.9291,-57.6104 108.0791,-68 111.7046,-71.7111 115.6275,-75.5233 119.5436,-79.2143"/>
<polygon fill="#000000" stroke="#000000" points="117.2702,-81.8792 126.9861,-86.1045 122.0257,-76.7426 117.2702,-81.8792"/>
<text text-anchor="middle" x="157.5449" y="-56.8" font-family="Times,serif" font-size="14.00" fill="#000000">provides action to</text>
</g>
<!-- foundation.pushstate -->
<g id="node5" class="node">
<title>foundation.pushstate</title>
<ellipse fill="none" stroke="#000000" cx="230.3896" cy="-18" rx="83.5895" ry="18"/>
<text text-anchor="middle" x="230.3896" y="-13.8" font-family="Times,serif" font-size="14.00" fill="#000000">foundation.pushstate</text>
</g>
<!-- foundation.pushstate&#45;&gt;foundation&#45;collection&#45;action -->
<g id="edge4" class="edge">
<title>foundation.pushstate&#45;&gt;foundation&#45;collection&#45;action</title>
<path fill="none" stroke="#000000" d="M225.4344,-36.1919C221.9493,-46.4225 216.4493,-58.9225 208.3896,-68 204.0497,-72.888 198.8821,-77.2982 193.4176,-81.2184"/>
<polygon fill="#000000" stroke="#000000" points="191.0962,-78.5558 184.6624,-86.9734 194.9413,-84.4052 191.0962,-78.5558"/>
<text text-anchor="middle" x="267.5449" y="-56.8" font-family="Times,serif" font-size="14.00" fill="#000000">provides action to</text>
</g>
</g>
</svg>
