<?xml version="1.0" encoding="utf-8"?>
<!-- Generator: Adobe Illustrator 19.1.0, SVG Export Plug-In . SVG Version: 6.00 Build 0)  -->
<svg version="1.1" id="Layer_1" xmlns="http://www.w3.org/2000/svg" xmlns:xlink="http://www.w3.org/1999/xlink" x="0px" y="0px"
	 width="147.183px" height="147.183px" viewBox="0 0 147.183 147.183" style="enable-background:new 0 0 147.183 147.183;"
	 xml:space="preserve">
<style type="text/css">
	.st0{fill:#696969;}
	.st1{fill:#FFFFFF;}
	.st2{fill:#F0F0F0;}
	.st3{opacity:0.3;}
	.st4{clip-path:url(#SVGID_2_);fill:none;stroke:#696969;stroke-miterlimit:10;}
	.st5{fill:#3278AF;}
</style>
<g>
	<path class="st0" d="M73.591,0C32.947,0,0,32.948,0,73.591c0,40.645,32.947,73.591,73.591,73.591
		c40.644,0,73.591-32.947,73.591-73.591C147.183,32.948,114.235,0,73.591,0z"/>
	<circle class="st1" cx="73.591" cy="73.591" r="69.666"/>
	<circle class="st0" cx="73.591" cy="73.591" r="67.704"/>
	<circle class="st1" cx="73.591" cy="73.591" r="44.155"/>
	<circle class="st0" cx="73.591" cy="73.591" r="42.192"/>
	<circle class="st2" cx="73.591" cy="73.591" r="38.267"/>
	<g>
		<path class="st1" d="M43.839,32.487c0.071,0.083,0.104,0.177,0.058,0.264c-0.313,0.559-0.919,1.225-1.693,1.892
			c-2.558,2.201-6.039,2.575-8.753-0.577c-2.392-2.778-2.111-6.366,0.902-8.961c0.899-0.773,1.523-1.167,2-1.312
			c0.079-0.02,0.143-0.002,0.214,0.081l1.131,1.313c0.095,0.11,0.04,0.158-0.039,0.178c-0.621,0.174-1.341,0.624-2.06,1.243
			c-1.949,1.678-2.122,3.993-0.456,5.929c2.06,2.392,4.531,1.685,5.982,0.435c0.678-0.583,1.142-1.079,1.498-1.699
			c0.031-0.075,0.085-0.097,0.156-0.014L43.839,32.487z"/>
		<path class="st1" d="M52.079,27.984c0.047,0.12,0.024,0.154-0.07,0.208l-6.311,3.59c-0.11,0.062-0.169,0.033-0.215-0.046
			l-5.78-10.162c-0.045-0.08-0.04-0.146,0.055-0.199l6.12-3.481c0.095-0.054,0.136-0.056,0.205,0.03l1.014,1.375
			c0.061,0.07,0.065,0.151-0.03,0.206l-4.534,2.579l1.435,2.521l4.121-2.345c0.08-0.045,0.12-0.047,0.175,0.048l0.856,1.506
			c0.045,0.08,0.007,0.123-0.057,0.159l-4.122,2.344l1.551,2.728l4.804-2.732c0.096-0.055,0.154-0.024,0.184,0.063L52.079,27.984z"
			/>
		<path class="st1" d="M54.047,27.296c-0.104,0.033-0.15,0.011-0.185-0.094l-3.617-11.086c-0.028-0.087-0.033-0.162,0.07-0.196
			c1.359-0.481,2.083-0.737,3.418-1.173c2.776-0.905,4.798-0.24,5.522,1.98c0.492,1.509-0.128,2.901-1.242,3.783
			c0.833,0.611,3.929,3.037,4.715,3.741c0.086,0.087,0.132,0.168,0.027,0.202l-2.169,0.707c-0.139,0.046-0.202,0.027-0.271-0.007
			c-0.758-0.617-2.624-2.216-3.783-3.182c-0.189-0.168-0.305-0.227-0.495-0.164l-1.492,0.486l1.381,4.233
			c0.034,0.104-0.007,0.156-0.093,0.185L54.047,27.296z M55.472,20.016c1.406-0.458,2.104-1.377,1.742-2.487
			c-0.374-1.146-1.48-1.418-2.955-0.937c-0.59,0.192-1.14,0.391-1.411,0.499l1.115,3.417L55.472,20.016z"/>
		<path class="st1" d="M65.316,14.158l-3.68,0.415c-0.091,0.011-0.134-0.04-0.126-0.133l0.046-1.712
			c0.006-0.111,0.038-0.151,0.146-0.164l9.01-1.016c0.108-0.013,0.167,0.018,0.199,0.143l0.35,1.631
			c0.03,0.106-0.018,0.167-0.108,0.178l-3.662,0.413l1.103,9.771c0.012,0.108-0.036,0.169-0.127,0.18l-1.867,0.21
			c-0.125,0.033-0.167-0.018-0.182-0.145L65.316,14.158z"/>
		<path class="st1" d="M75.852,23.543c-0.004,0.127-0.041,0.163-0.15,0.159l-1.915-0.06c-0.109-0.003-0.145-0.059-0.141-0.168
			l0.361-11.67c0.004-0.128,0.06-0.145,0.15-0.142l1.914,0.06c0.109,0.003,0.146,0.041,0.142,0.15L75.852,23.543z"/>
		<path class="st1" d="M80.623,24.041c-0.018,0.108-0.061,0.138-0.168,0.119l-1.905-0.326c-0.09-0.016-0.116-0.076-0.102-0.166
			l1.979-11.539c0.015-0.091,0.058-0.12,0.165-0.102l6.938,1.189c0.107,0.019,0.138,0.061,0.137,0.172l-0.106,1.702
			c-0.001,0.111-0.061,0.138-0.169,0.119l-5.104-0.875l-0.54,3.146l4.584,0.786c0.09,0.016,0.141,0.042,0.122,0.15l-0.289,1.689
			c-0.016,0.09-0.076,0.116-0.166,0.102l-4.583-0.786L80.623,24.041z"/>
		<path class="st1" d="M89.459,26.181c-0.039,0.121-0.085,0.146-0.189,0.112l-1.825-0.584c-0.104-0.033-0.122-0.097-0.089-0.2
			l3.555-11.123c0.039-0.122,0.097-0.123,0.184-0.095l1.825,0.583c0.104,0.033,0.128,0.079,0.095,0.184L89.459,26.181z"/>
		<path class="st1" d="M98.744,30.328c-0.072,0.107-0.113,0.107-0.212,0.06l-6.528-3.182c-0.114-0.057-0.123-0.122-0.084-0.204
			l5.126-10.514c0.04-0.082,0.097-0.115,0.195-0.067l6.331,3.086c0.099,0.048,0.123,0.081,0.092,0.187l-0.563,1.614
			c-0.023,0.09-0.088,0.14-0.187,0.091l-4.691-2.286l-1.271,2.608l4.266,2.078c0.082,0.04,0.106,0.072,0.059,0.171l-0.76,1.559
			c-0.04,0.082-0.098,0.074-0.163,0.042l-4.265-2.078l-1.375,2.821l4.97,2.423c0.099,0.048,0.107,0.112,0.051,0.187L98.744,30.328z"
			/>
		<path class="st1" d="M107.619,22.116c0.057-0.071,0.094-0.089,0.19-0.035c0.427,0.312,1.424,1.052,2.742,2.091
			c3.367,2.653,3.556,5.894,1.456,8.562c-2.755,3.499-6.527,2.805-8.948,0.896c-0.902-0.711-2.221-1.75-2.657-2.14
			c-0.057-0.046-0.066-0.122,0.002-0.209L107.619,22.116z M103.21,31.285c0.274,0.24,0.59,0.488,0.963,0.782
			c2.02,1.592,4.307,1.489,6.023-0.691c1.637-2.08,1.089-4.186-0.846-5.71c-0.4-0.315-0.728-0.55-1.082-0.807L103.21,31.285z"/>
	</g>
	<g>
		<path class="st1" d="M12.598,81.962c-0.095,0.008-0.177-0.018-0.215-0.095c-0.23-0.508-0.387-1.277-0.456-2.166
			c-0.229-2.933,1.305-5.572,4.919-5.854c3.187-0.249,5.563,1.799,5.833,5.255c0.08,1.03,0.034,1.672-0.108,2.082
			c-0.027,0.066-0.072,0.102-0.167,0.108l-1.507,0.118c-0.127,0.01-0.132-0.054-0.104-0.12c0.198-0.525,0.252-1.264,0.188-2.088
			c-0.174-2.235-1.712-3.551-3.932-3.378c-2.742,0.214-3.52,2.316-3.39,3.98c0.061,0.777,0.169,1.358,0.421,1.93
			c0.037,0.061,0.024,0.109-0.07,0.117L12.598,81.962z"/>
		<path class="st1" d="M12.868,85.164c-0.029-0.124,0.01-0.166,0.117-0.192l9.862-2.375c0.077-0.019,0.146-0.003,0.169,0.09
			l0.398,1.654c0.015,0.062-0.024,0.104-0.086,0.118l-8.362,2.015l1.095,4.544c0.021,0.093-0.017,0.135-0.083,0.135l-1.516,0.087
			c-0.112,0.011-0.139-0.032-0.157-0.109L12.868,85.164z"/>
		<path class="st1" d="M23.277,99.516c-3.029,1.281-5.792,0.23-6.905-2.438c-1.188-2.845,0.215-5.427,3.074-6.62
			c2.815-1.175,5.727-0.221,6.853,2.478C27.498,95.809,25.984,98.369,23.277,99.516z M17.964,96.481
			c0.691,1.656,2.472,2.085,4.504,1.22c2.053-0.856,2.965-2.426,2.249-4.141c-0.648-1.555-2.337-2.176-4.507-1.271
			C18.319,93.079,17.212,94.678,17.964,96.481z"/>
		<path class="st1" d="M24.466,103.702c-1.251,0.847-1.671,2.014-0.815,3.278c0.704,1.04,1.73,1.479,3.337,0.392l5.148-3.484
			c0.079-0.054,0.137-0.054,0.189,0.024l0.937,1.383c0.053,0.079,0.031,0.133-0.034,0.177l-5.241,3.547
			c-2.463,1.666-4.462,0.812-5.78-1.138c-1.408-2.08-1.202-4.159,1.062-5.691l5.294-3.583c0.079-0.053,0.127-0.066,0.189,0.025
			l0.936,1.383c0.054,0.079,0.046,0.123-0.033,0.177L24.466,103.702z"/>
		<path class="st1" d="M34.409,106.917c0.057-0.056,0.09-0.067,0.169-0.012c0.338,0.313,1.127,1.053,2.165,2.083
			c2.649,2.632,2.49,5.453,0.407,7.551c-2.732,2.752-5.928,1.773-7.833-0.119c-0.711-0.706-1.748-1.736-2.087-2.117
			c-0.045-0.045-0.045-0.112,0.022-0.18L34.409,106.917z M29.68,114.407c0.215,0.234,0.463,0.481,0.756,0.772
			c1.59,1.579,3.58,1.719,5.282,0.005c1.624-1.636,1.359-3.512-0.163-5.023c-0.316-0.313-0.575-0.549-0.857-0.806L29.68,114.407z"/>
		<path class="st1" d="M43.169,122.383c-0.746,1.313-0.605,2.546,0.722,3.3c1.092,0.621,2.206,0.56,3.165-1.127l3.072-5.405
			c0.047-0.083,0.099-0.109,0.182-0.062l1.451,0.824c0.083,0.048,0.087,0.104,0.048,0.174l-3.128,5.502
			c-1.469,2.586-3.641,2.705-5.687,1.542c-2.185-1.242-2.92-3.197-1.568-5.574l3.159-5.558c0.047-0.083,0.084-0.117,0.181-0.062
			l1.452,0.825c0.083,0.047,0.095,0.09,0.047,0.173L43.169,122.383z"/>
		<path class="st1" d="M51.772,130.932c-0.041,0.104-0.082,0.121-0.171,0.086l-1.552-0.615c-0.089-0.035-0.102-0.091-0.066-0.18
			l3.75-9.463c0.041-0.104,0.092-0.101,0.166-0.071l1.552,0.615c0.089,0.035,0.106,0.076,0.071,0.165L51.772,130.932z"/>
		<path class="st1" d="M70.793,134.763c-0.011,0.095-0.051,0.171-0.133,0.193c-0.542,0.134-1.327,0.145-2.212,0.049
			c-2.925-0.316-5.236-2.31-4.847-5.913c0.344-3.178,2.794-5.136,6.24-4.764c1.027,0.111,1.649,0.274,2.026,0.491
			c0.06,0.038,0.086,0.09,0.076,0.185l-0.163,1.502c-0.014,0.126-0.076,0.119-0.137,0.081c-0.479-0.292-1.195-0.481-2.017-0.57
			c-2.229-0.241-3.806,1.028-4.045,3.241c-0.296,2.734,1.627,3.886,3.286,4.065c0.775,0.084,1.366,0.084,1.974-0.059
			c0.066-0.024,0.112-0.004,0.103,0.091L70.793,134.763z"/>
		<path class="st1" d="M82.867,129.219c0.265,3.28-1.602,5.575-4.487,5.794c-3.075,0.234-5.088-1.909-5.323-5.001
			c-0.231-3.044,1.591-5.51,4.508-5.731C80.671,124.044,82.627,126.287,82.867,129.219z M78.314,133.311
			c1.792-0.136,2.758-1.692,2.574-3.895c-0.169-2.22-1.372-3.579-3.228-3.438c-1.68,0.128-2.801,1.536-2.622,3.883
			C75.194,131.906,76.364,133.46,78.314,133.311z"/>
		<path class="st1" d="M84.412,123.685l2.427-0.765c0.091-0.028,0.131-0.008,0.185,0.059c0.938,1.389,3.676,5.478,4.423,6.793
			l0.016-0.005c-0.088-1.39-0.033-6.458-0.055-8.168c0.011-0.07,0.012-0.121,0.103-0.149l2.366-0.745
			c0.076-0.023,0.111-0.019,0.15,0.053l3.48,9.624c0.044,0.086,0.008,0.131-0.068,0.154l-1.684,0.53
			c-0.075,0.024-0.126,0.023-0.154-0.068c-1.094-3.206-2.499-7.564-2.785-8.525l-0.015,0.005c0.109,1.566,0.143,7.124,0.171,9.332
			c0.019,0.111-0.038,0.146-0.099,0.164l-1.517,0.478c-0.105,0.034-0.141,0.028-0.185-0.058c-1.379-2.101-3.981-6.132-4.989-7.849
			l-0.03,0.01c0.468,1.536,1.56,5.427,2.41,8.66c0.029,0.091,0.004,0.115-0.088,0.145l-1.517,0.478
			c-0.091,0.028-0.126,0.022-0.145-0.088l-2.494-9.935C84.305,123.719,84.335,123.709,84.412,123.685z"/>
		<path class="st1" d="M96.192,119.64c-0.04-0.069-0.036-0.126,0.033-0.166c0.517-0.313,1.523-0.925,2.531-1.5
			c2.679-1.531,4.525-0.607,5.393,0.911c1.255,2.196,0.101,4.119-1.984,5.311c-0.442,0.252-0.553,0.315-0.87,0.497l1.617,2.831
			c0.039,0.068,0.035,0.126-0.048,0.173l-1.449,0.829c-0.069,0.039-0.127,0.035-0.166-0.034L96.192,119.64z M100.45,123.215
			c0.243-0.12,0.423-0.223,0.878-0.483c1.16-0.663,1.92-1.609,1.202-2.866c-0.576-1.008-1.634-1.191-2.903-0.466
			c-0.483,0.276-0.862,0.511-1.007,0.611L100.45,123.215z"/>
		<path class="st1" d="M114.152,112.909c2.156,2.484,2.013,5.438-0.182,7.324c-2.339,2.01-5.229,1.476-7.249-0.875
			c-1.989-2.314-1.983-5.38,0.234-7.286C109.319,110.041,112.223,110.689,114.152,112.909z M112.91,118.901
			c1.362-1.17,1.219-2.996-0.233-4.661c-1.451-1.688-3.226-2.069-4.636-0.857c-1.277,1.098-1.346,2.896,0.188,4.681
			C109.564,119.618,111.427,120.176,112.91,118.901z"/>
		<path class="st1" d="M120.206,114.022c-0.058,0.076-0.1,0.104-0.2,0.027l-8.089-6.191c-0.063-0.049-0.069-0.093-0.021-0.156
			l1.362-1.779c0.077-0.101,0.112-0.094,0.204-0.084c2.381,0.342,7.417,1.135,8.701,1.417l0.01-0.013
			c-0.362-0.258-0.799-0.551-1.984-1.459l-4.202-3.216c-0.063-0.049-0.072-0.115-0.015-0.191l0.928-1.211
			c0.067-0.089,0.125-0.085,0.2-0.027l8.063,6.172c0.089,0.068,0.085,0.125,0.018,0.214l-1.228,1.603
			c-0.067,0.088-0.121,0.106-0.214,0.097c-1.789-0.329-7.633-1.14-9.233-1.585l-0.01,0.013c0.683,0.442,1.247,0.854,2.396,1.733
			l4.215,3.227c0.076,0.058,0.095,0.112,0.036,0.188L120.206,114.022z"/>
		<path class="st1" d="M130.291,97.815c0.093,0.064,0.092,0.1,0.049,0.185l-2.854,5.648c-0.051,0.1-0.107,0.106-0.179,0.07
			l-9.096-4.597c-0.071-0.036-0.1-0.086-0.057-0.171l2.769-5.478c0.043-0.086,0.071-0.106,0.164-0.078l1.398,0.511
			c0.078,0.021,0.12,0.079,0.077,0.164l-2.051,4.059l2.256,1.141l1.865-3.689c0.035-0.071,0.064-0.093,0.149-0.05l1.348,0.682
			c0.071,0.036,0.064,0.086,0.035,0.143l-1.864,3.689l2.44,1.233l2.173-4.3c0.043-0.085,0.101-0.092,0.164-0.042L130.291,97.815z"/>
		<path class="st1" d="M131.889,94.227c-0.026,0.091-0.055,0.133-0.177,0.098l-9.801-2.807c-0.076-0.022-0.098-0.062-0.076-0.138
			l0.617-2.156c0.035-0.122,0.07-0.129,0.16-0.152c2.342-0.554,7.323-1.658,8.624-1.864l0.004-0.016
			c-0.433-0.107-0.945-0.222-2.383-0.633l-5.092-1.459c-0.076-0.021-0.108-0.08-0.083-0.172l0.421-1.468
			c0.03-0.107,0.085-0.125,0.177-0.099l9.771,2.799c0.106,0.03,0.124,0.085,0.094,0.192l-0.557,1.941
			c-0.03,0.107-0.074,0.145-0.164,0.168c-1.787,0.349-7.526,1.731-9.181,1.903l-0.005,0.016c0.798,0.162,1.475,0.339,2.866,0.737
			l5.106,1.463c0.092,0.026,0.129,0.07,0.103,0.162L131.889,94.227z"/>
		<path class="st1" d="M126.382,79.109l-0.294,3.212c-0.007,0.079-0.058,0.106-0.135,0.083l-1.453-0.34
			c-0.094-0.024-0.122-0.06-0.113-0.154l0.72-7.864c0.009-0.095,0.045-0.14,0.157-0.146l1.453-0.01
			c0.097-0.008,0.14,0.044,0.132,0.123l-0.292,3.197l8.528,0.781c0.095,0.009,0.138,0.061,0.131,0.14l-0.149,1.63
			c0.006,0.111-0.045,0.139-0.155,0.129L126.382,79.109z"/>
	</g>
	<polygon class="st2" points="124.615,44.631 125.596,48.556 129.521,48.556 126.717,51.027 127.558,54.822 124.615,52.821 
		121.671,54.917 122.51,51.011 119.709,48.556 123.633,48.556 	"/>
	<polygon class="st2" points="22.568,44.631 23.549,48.556 27.474,48.556 24.67,51.027 25.512,54.822 22.568,52.821 19.624,54.917 
		20.464,51.011 17.662,48.556 21.587,48.556 	"/>
	<g class="st3">
		<defs>
			<path id="SVGID_1_" class="st3" d="M111.619,69.336c2.35,21.005-12.773,39.938-33.775,42.288
				c-21.004,2.348-39.935-12.773-42.284-33.779c-2.348-21.003,12.773-39.934,33.777-42.282
				C90.339,33.213,109.271,48.336,111.619,69.336z"/>
		</defs>
		<clipPath id="SVGID_2_">
			<use xlink:href="#SVGID_1_"  style="overflow:visible;"/>
		</clipPath>
		<line class="st4" x1="21.554" y1="40.907" x2="53.683" y2="116.299"/>
		<line class="st4" x1="27.405" y1="40.251" x2="59.534" y2="115.646"/>
		<line class="st4" x1="33.256" y1="39.597" x2="65.385" y2="114.991"/>
		<line class="st4" x1="39.107" y1="38.943" x2="71.236" y2="114.335"/>
		<line class="st4" x1="44.958" y1="38.288" x2="77.087" y2="113.683"/>
		<line class="st4" x1="50.809" y1="37.633" x2="82.938" y2="113.029"/>
		<line class="st4" x1="56.66" y1="36.981" x2="88.789" y2="112.372"/>
		<line class="st4" x1="62.51" y1="36.324" x2="94.64" y2="111.718"/>
		<line class="st4" x1="68.361" y1="35.671" x2="100.49" y2="111.063"/>
		<line class="st4" x1="74.212" y1="35.016" x2="106.341" y2="110.41"/>
		<line class="st4" x1="80.063" y1="34.362" x2="112.192" y2="109.755"/>
		<line class="st4" x1="85.914" y1="33.708" x2="118.043" y2="109.099"/>
		<line class="st4" x1="91.765" y1="33.054" x2="123.894" y2="108.446"/>
		<line class="st4" x1="97.616" y1="32.397" x2="129.745" y2="107.793"/>
	</g>
	<g>
		<path class="st0" d="M92.234,70.648c-0.186,0-0.092-0.012,0-0.018c-0.012-8.484-7.216-15.681-15.699-15.681
			c-5.609,0-10.512,3.908-13.199,8.393c-1.221-0.422-3.095-0.543-4.463-0.543c-6.606,0-11.391,5.216-11.391,11.819
			c0,6.603,4.785,11.938,11.391,11.938h33.361c0,0,7.85-0.104,7.85-7.954S92.234,70.648,92.234,70.648z M92.209,83.556H58.873
			c-4.553,0-7.859-3.863-7.859-8.673c0-4.741,3.306-8.367,7.859-8.367c1.589,0,2.808,0.084,3.31,0.257l2.71,0.889l1.474-2.483
			c1.845-3.081,5.136-6.687,9.69-6.687c6.064,0,11.583,4.705,11.583,10.593v1.668l0.586,3.421l3.769,0.008
			c1.591,0.035,4.438,1.016,4.438,4.688C96.432,82.531,93.837,83.556,92.209,83.556z"/>
	</g>
	<path class="st2" d="M92.209,83.556H58.873c-4.553,0-7.859-3.863-7.859-8.673c0-4.741,3.306-8.367,7.859-8.367
		c1.589,0,2.808,0.084,3.31,0.257l2.71,0.889l1.474-2.483c1.845-3.081,5.136-6.687,9.69-6.687c6.064,0,11.583,4.705,11.583,10.593
		v1.668l0.586,3.421l3.769,0.008c1.591,0.035,4.438,1.016,4.438,4.688C96.432,82.531,93.837,83.556,92.209,83.556z"/>
</g>
</svg>
