<?xml version="1.0" encoding="UTF-8" standalone="no"?>
<!DOCTYPE svg PUBLIC "-//W3C//DTD SVG 1.1//EN"
 "http://www.w3.org/Graphics/SVG/1.1/DTD/svg11.dtd">
<!-- Generated by graphviz version 2.40.1 (20161225.0304)
 -->
<!-- Title: foundation&#45;editable Pages: 1 -->
<svg width="368pt" height="130pt"
 viewBox="0.00 0.00 368.24 130.00" xmlns="http://www.w3.org/2000/svg" xmlns:xlink="http://www.w3.org/1999/xlink">
<g id="graph0" class="graph" transform="scale(1 1) rotate(0) translate(4 126)">
<title>foundation&#45;editable</title>
<polygon fill="#ffffff" stroke="transparent" points="-4,4 -4,-126 364.2435,-126 364.2435,4 -4,4"/>
<!-- foundation&#45;editable&#45;control -->
<g id="node1" class="node">
<title>foundation&#45;editable&#45;control</title>
<ellipse fill="none" stroke="#000000" cx="107.3504" cy="-18" rx="107.201" ry="18"/>
<text text-anchor="middle" x="107.3504" y="-13.8" font-family="Times,serif" font-size="14.00" fill="#000000">foundation&#45;editable&#45;control</text>
</g>
<!-- foundation&#45;editable -->
<g id="node2" class="node">
<title>foundation&#45;editable</title>
<ellipse fill="none" stroke="#000000" cx="107.3504" cy="-104" rx="79.2126" ry="18"/>
<text text-anchor="middle" x="107.3504" y="-99.8" font-family="Times,serif" font-size="14.00" fill="#000000">foundation&#45;editable</text>
</g>
<!-- foundation&#45;editable&#45;control&#45;&gt;foundation&#45;editable -->
<g id="edge1" class="edge">
<title>foundation&#45;editable&#45;control&#45;&gt;foundation&#45;editable</title>
<path fill="none" stroke="#000000" d="M107.3504,-36.2384C107.3504,-47.6403 107.3504,-62.5658 107.3504,-75.506"/>
<polygon fill="#000000" stroke="#000000" points="103.8505,-75.7879 107.3504,-85.7879 110.8505,-75.7879 103.8505,-75.7879"/>
<text text-anchor="middle" x="129.9022" y="-56.8" font-family="Times,serif" font-size="14.00" fill="#000000">controls</text>
</g>
<!-- foundation.text -->
<g id="node3" class="node">
<title>foundation.text</title>
<ellipse fill="none" stroke="#000000" cx="296.3504" cy="-18" rx="63.7863" ry="18"/>
<text text-anchor="middle" x="296.3504" y="-13.8" font-family="Times,serif" font-size="14.00" fill="#000000">foundation.text</text>
</g>
<!-- foundation.text&#45;&gt;foundation&#45;editable -->
<g id="edge2" class="edge">
<title>foundation.text&#45;&gt;foundation&#45;editable</title>
<path fill="none" stroke="#000000" d="M262.561,-33.3751C231.6981,-47.4185 185.853,-68.2792 151.9843,-83.6904"/>
<polygon fill="#000000" stroke="#000000" points="150.424,-80.555 142.7716,-87.8824 153.3232,-86.9264 150.424,-80.555"/>
<text text-anchor="middle" x="262.7298" y="-56.8" font-family="Times,serif" font-size="14.00" fill="#000000">provides editor to</text>
</g>
</g>
</svg>
