<?xml version="1.0" encoding="UTF-8" standalone="no"?>
<!DOCTYPE svg PUBLIC "-//W3C//DTD SVG 1.1//EN"
 "http://www.w3.org/Graphics/SVG/1.1/DTD/svg11.dtd">
<!-- Generated by graphviz version 2.40.1 (20161225.0304)
 -->
<!-- Title: Tracking Layers Pages: 1 -->
<svg width="206pt" height="302pt"
 viewBox="0.00 0.00 206.38 302.00" xmlns="http://www.w3.org/2000/svg" xmlns:xlink="http://www.w3.org/1999/xlink">
<g id="graph0" class="graph" transform="scale(1 1) rotate(0) translate(4 298)">
<title>Tracking Layers</title>
<polygon fill="#ffffff" stroke="transparent" points="-4,4 -4,-298 202.3784,-298 202.3784,4 -4,4"/>
<!-- Tracking Engine Adapter -->
<g id="node1" class="node">
<title>Tracking Engine Adapter</title>
<ellipse fill="none" stroke="#000000" cx="99.1892" cy="-104" rx="99.3788" ry="18"/>
<text text-anchor="middle" x="99.1892" y="-99.8" font-family="Times,serif" font-size="14.00" fill="#000000">Tracking Engine Adapter</text>
</g>
<!-- Actual Tracking Engine -->
<g id="node2" class="node">
<title>Actual Tracking Engine</title>
<ellipse fill="none" stroke="#000000" cx="99.1892" cy="-18" rx="94.7155" ry="18"/>
<text text-anchor="middle" x="99.1892" y="-13.8" font-family="Times,serif" font-size="14.00" fill="#000000">Actual Tracking Engine</text>
</g>
<!-- Tracking Engine Adapter&#45;&gt;Actual Tracking Engine -->
<g id="edge1" class="edge">
<title>Tracking Engine Adapter&#45;&gt;Actual Tracking Engine</title>
<path fill="none" stroke="#000000" d="M99.1892,-85.7616C99.1892,-74.3597 99.1892,-59.4342 99.1892,-46.494"/>
<polygon fill="#000000" stroke="#000000" points="102.6893,-46.2121 99.1892,-36.2121 95.6893,-46.2121 102.6893,-46.2121"/>
<text text-anchor="middle" x="115.9065" y="-56.8" font-family="Times,serif" font-size="14.00" fill="#000000">wraps</text>
</g>
<!-- foundation&#45;tracker API -->
<g id="node3" class="node">
<title>foundation&#45;tracker API</title>
<ellipse fill="none" stroke="#000000" cx="99.1892" cy="-190" rx="91.7747" ry="18"/>
<text text-anchor="middle" x="99.1892" y="-185.8" font-family="Times,serif" font-size="14.00" fill="#000000">foundation&#45;tracker API</text>
</g>
<!-- foundation&#45;tracker API&#45;&gt;Tracking Engine Adapter -->
<g id="edge2" class="edge">
<title>foundation&#45;tracker API&#45;&gt;Tracking Engine Adapter</title>
<path fill="none" stroke="#000000" d="M99.1892,-171.7616C99.1892,-160.3597 99.1892,-145.4342 99.1892,-132.494"/>
<polygon fill="#000000" stroke="#000000" points="102.6893,-132.2121 99.1892,-122.2121 95.6893,-132.2121 102.6893,-132.2121"/>
<text text-anchor="middle" x="111.2444" y="-142.8" font-family="Times,serif" font-size="14.00" fill="#000000">uses</text>
</g>
<!-- Declarative Approach -->
<g id="node4" class="node">
<title>Declarative Approach</title>
<ellipse fill="none" stroke="#000000" cx="99.1892" cy="-276" rx="87.4052" ry="18"/>
<text text-anchor="middle" x="99.1892" y="-271.8" font-family="Times,serif" font-size="14.00" fill="#000000">Declarative Approach</text>
</g>
<!-- Declarative Approach&#45;&gt;foundation&#45;tracker API -->
<g id="edge3" class="edge">
<title>Declarative Approach&#45;&gt;foundation&#45;tracker API</title>
<path fill="none" stroke="#000000" d="M99.1892,-257.7616C99.1892,-246.3597 99.1892,-231.4342 99.1892,-218.494"/>
<polygon fill="#000000" stroke="#000000" points="102.6893,-218.2121 99.1892,-208.2121 95.6893,-218.2121 102.6893,-218.2121"/>
<text text-anchor="middle" x="111.2444" y="-228.8" font-family="Times,serif" font-size="14.00" fill="#000000">uses</text>
</g>
</g>
</svg>
