<?xml version="1.0" encoding="utf-8"?>
<!-- Generator: Adobe Illustrator 19.1.0, SVG Export Plug-In . SVG Version: 6.00 Build 0)  -->
<svg version="1.1" id="Layer_1" xmlns="http://www.w3.org/2000/svg" xmlns:xlink="http://www.w3.org/1999/xlink" x="0px" y="0px"
	 width="108.132px" height="105.783px" viewBox="0 0 108.132 105.783" style="enable-background:new 0 0 108.132 105.783;"
	 xml:space="preserve">
<style type="text/css">
	.st0{fill:#92C148;}
</style>
<g>
	<path class="st0" d="M106.383,1.046c-2.022-1.637-4.983-1.315-6.611,0.705L44.287,70.55L24.48,50.743
		c-1.834-1.836-4.814-1.836-6.648,0c-1.837,1.841-1.837,4.817,0,6.646l23.507,23.509c0.884,0.882,2.082,1.378,3.324,1.378
		c1.373,0,2.741-0.613,3.659-1.749L107.09,7.655C108.72,5.632,108.403,2.673,106.383,1.046z"/>
	<path class="st0" d="M89.327,44.665c-2.596,0-4.701,2.102-4.701,4.701V96.38H9.403V21.158H65.82c2.596,0,4.701-2.108,4.701-4.701
		c0-2.599-2.105-4.701-4.701-4.701H4.701C2.105,11.755,0,13.857,0,16.456v84.625c0,2.594,2.105,4.701,4.701,4.701h84.625
		c2.596,0,4.701-2.108,4.701-4.701V49.366C94.028,46.767,91.923,44.665,89.327,44.665z"/>
</g>
</svg>
