<?xml version="1.0" encoding="utf-8"?>
<!-- Generator: Adobe Illustrator 19.1.0, SVG Export Plug-In . SVG Version: 6.00 Build 0)  -->
<svg version="1.1" id="Layer_1" xmlns="http://www.w3.org/2000/svg" xmlns:xlink="http://www.w3.org/1999/xlink" x="0px" y="0px"
	 width="195.047px" height="129.253px" viewBox="0 0 195.047 129.253" style="enable-background:new 0 0 195.047 129.253;"
	 xml:space="preserve">
<style type="text/css">
	.st0{fill:#E44D26;}
	.st1{fill:#F16529;}
	.st2{fill:#EFEFEF;}
	.st3{fill:#BCBCBC;}
</style>
<g>
	<path class="st0" d="M66.536,128.831L29.415,27.269L131.358,0l18.544,106.525l-38.651,22.728L66.536,128.831z"/>
	<path class="st1" d="M108.945,120.398l31.228-18.374l-15.851-91.032L82.659,22.137L108.945,120.398z"/>
	<path class="st2" d="M179.842,52.543l4.75,16.343l-36.364,10.275c0,0,0,21.871-17.647,30.566
		c-17.645,8.695-31.353,1.322-31.353,1.322l-2.195-6.324l26.176-7.117l5.793-22.402l-16.864-16.587l-24.242,7.332l-2.105-5.753
		c0,0,11.327-25.034,44.794-10.795c0,0,10.546,6.581,12.91,12.384L179.842,52.543L179.842,52.543z M184.592,51.316l5.794-1.669
		l4.661,16.689l-6.064,1.839L184.592,51.316z"/>
	<path class="st3" d="M186.633,50.579l3.753-0.932l4.661,16.689l-6.064,1.839l-1.589-5.588l2.42-0.947L186.633,50.579z
		 M175.832,53.565l4.01-1.022l4.75,16.343l-36.364,10.275c0,0-0.392,19.084-13.047,27.725c-12.634,8.634-26.873,8.374-35.958,4.164
		l-1.013-2.916c0,0,24.727,5.814,36.971-12.765c7.383-12.249,7.253-21.079,7.253-21.079l36.489-9.878L175.832,53.565L175.832,53.565
		z M85.787,60.186l21.344-6.194l4.997,4.616l-24.237,7.332L85.787,60.186z"/>
	<path class="st2" d="M10.54,71.769l4.285,16.468l36.491-9.773c0,0,11.197,18.784,30.812,17.219
		c19.621-1.563,27.615-14.909,27.615-14.909l-1.353-6.555L82.263,81.5L65.819,65.228l5.999-22.894l24.583-6.104l-1.138-6.024
		c0,0-22.537-15.712-44.012,13.642c0,0-5.684,11.046-4.756,17.241L10.54,71.769L10.54,71.769z M5.834,73.147L0,74.675l4.536,16.719
		l6.154-1.519L5.834,73.147z"/>
	<path class="st3" d="M3.704,73.552L0,74.675l4.536,16.719l6.154-1.519l-1.489-5.619l-2.576,0.427L3.704,73.552z M14.519,70.595
		l-3.979,1.173l4.285,16.468l36.491-9.773c0,0,10.109,16.188,25.399,17.14c15.276,0.942,27.369-6.555,33.027-14.83l-0.616-3.022
		c0,0-18.278,17.652-38.309,7.954c-12.61-6.745-17.01-14.409-17.01-14.409L17.396,81.49L14.519,70.595z M95.263,30.211l-21.5,5.593
		l-1.939,6.53l24.582-6.104L95.263,30.211z"/>
</g>
</svg>
