<?xml version="1.0" encoding="UTF-8" standalone="no"?>
<!DOCTYPE svg PUBLIC "-//W3C//DTD SVG 1.1//EN"
 "http://www.w3.org/Graphics/SVG/1.1/DTD/svg11.dtd">
<!-- Generated by graphviz version 2.40.1 (20161225.0304)
 -->
<!-- Title: foundation&#45;content Pages: 1 -->
<svg width="446pt" height="130pt"
 viewBox="0.00 0.00 446.30 130.00" xmlns="http://www.w3.org/2000/svg" xmlns:xlink="http://www.w3.org/1999/xlink">
<g id="graph0" class="graph" transform="scale(1 1) rotate(0) translate(4 126)">
<title>foundation&#45;content</title>
<polygon fill="#ffffff" stroke="transparent" points="-4,4 -4,-126 442.2963,-126 442.2963,4 -4,4"/>
<!-- foundation&#45;content&#45;control -->
<g id="node1" class="node">
<title>foundation&#45;content&#45;control</title>
<ellipse fill="none" stroke="#000000" cx="105.39" cy="-18" rx="105.2801" ry="18"/>
<text text-anchor="middle" x="105.39" y="-13.8" font-family="Times,serif" font-size="14.00" fill="#000000">foundation&#45;content&#45;control</text>
</g>
<!-- foundation&#45;content -->
<g id="node2" class="node">
<title>foundation&#45;content</title>
<ellipse fill="none" stroke="#000000" cx="219.39" cy="-104" rx="77.2916" ry="18"/>
<text text-anchor="middle" x="219.39" y="-99.8" font-family="Times,serif" font-size="14.00" fill="#000000">foundation&#45;content</text>
</g>
<!-- foundation&#45;content&#45;control&#45;&gt;foundation&#45;content -->
<g id="edge1" class="edge">
<title>foundation&#45;content&#45;control&#45;&gt;foundation&#45;content</title>
<path fill="none" stroke="#000000" d="M128.7347,-35.6109C145.9848,-48.6242 169.6421,-66.4709 188.4642,-80.67"/>
<polygon fill="#000000" stroke="#000000" points="186.375,-83.4782 196.4661,-86.7065 190.5907,-77.89 186.375,-83.4782"/>
<text text-anchor="middle" x="191.9417" y="-56.8" font-family="Times,serif" font-size="14.00" fill="#000000">controls</text>
</g>
<!-- foundation&#45;content&#45;history -->
<g id="node3" class="node">
<title>foundation&#45;content&#45;history</title>
<ellipse fill="none" stroke="#000000" cx="333.39" cy="-18" rx="104.8128" ry="18"/>
<text text-anchor="middle" x="333.39" y="-13.8" font-family="Times,serif" font-size="14.00" fill="#000000">foundation&#45;content&#45;history</text>
</g>
<!-- foundation&#45;content&#45;history&#45;&gt;foundation&#45;content -->
<g id="edge2" class="edge">
<title>foundation&#45;content&#45;history&#45;&gt;foundation&#45;content</title>
<path fill="none" stroke="#000000" d="M310.0453,-35.6109C292.7951,-48.6242 269.1379,-66.4709 250.3158,-80.67"/>
<polygon fill="#000000" stroke="#000000" points="248.1892,-77.89 242.3139,-86.7065 252.4049,-83.4782 248.1892,-77.89"/>
<text text-anchor="middle" x="304.9417" y="-56.8" font-family="Times,serif" font-size="14.00" fill="#000000">controls</text>
</g>
</g>
</svg>
