<?xml version="1.0" encoding="UTF-8" standalone="no"?>
<!DOCTYPE svg PUBLIC "-//W3C//DTD SVG 1.1//EN"
 "http://www.w3.org/Graphics/SVG/1.1/DTD/svg11.dtd">
<!-- Generated by graphviz version 2.40.1 (20161225.0304)
 -->
<!-- Title: foundation&#45;collection Pages: 1 -->
<svg width="476pt" height="130pt"
 viewBox="0.00 0.00 476.02 130.00" xmlns="http://www.w3.org/2000/svg" xmlns:xlink="http://www.w3.org/1999/xlink">
<g id="graph0" class="graph" transform="scale(1 1) rotate(0) translate(4 126)">
<title>foundation&#45;collection</title>
<polygon fill="#ffffff" stroke="transparent" points="-4,4 -4,-126 472.0167,-126 472.0167,4 -4,4"/>
<!-- foundation&#45;selections -->
<g id="node1" class="node">
<title>foundation&#45;selections</title>
<ellipse fill="none" stroke="#000000" cx="86.2392" cy="-18" rx="86.4791" ry="18"/>
<text text-anchor="middle" x="86.2392" y="-13.8" font-family="Times,serif" font-size="14.00" fill="#000000">foundation&#45;selections</text>
</g>
<!-- foundation&#45;collection -->
<g id="node2" class="node">
<title>foundation&#45;collection</title>
<ellipse fill="none" stroke="#000000" cx="86.2392" cy="-104" rx="86.4704" ry="18"/>
<text text-anchor="middle" x="86.2392" y="-99.8" font-family="Times,serif" font-size="14.00" fill="#000000">foundation&#45;collection</text>
</g>
<!-- foundation&#45;selections&#45;&gt;foundation&#45;collection -->
<g id="edge1" class="edge">
<title>foundation&#45;selections&#45;&gt;foundation&#45;collection</title>
<path fill="none" stroke="#000000" d="M86.2392,-36.2384C86.2392,-47.6403 86.2392,-62.5658 86.2392,-75.506"/>
<polygon fill="#000000" stroke="#000000" points="82.7393,-75.7879 86.2392,-85.7879 89.7393,-75.7879 82.7393,-75.7879"/>
<text text-anchor="middle" x="107.622" y="-56.8" font-family="Times,serif" font-size="14.00" fill="#000000">extends</text>
</g>
<!-- foundation&#45;collection&#45;item&#45;activator -->
<g id="node3" class="node">
<title>foundation&#45;collection&#45;item&#45;activator</title>
<ellipse fill="none" stroke="#000000" cx="329.2392" cy="-18" rx="138.5554" ry="18"/>
<text text-anchor="middle" x="329.2392" y="-13.8" font-family="Times,serif" font-size="14.00" fill="#000000">foundation&#45;collection&#45;item&#45;activator</text>
</g>
<!-- foundation&#45;collection&#45;item&#45;activator&#45;&gt;foundation&#45;collection -->
<g id="edge2" class="edge">
<title>foundation&#45;collection&#45;item&#45;activator&#45;&gt;foundation&#45;collection</title>
<path fill="none" stroke="#000000" d="M281.2302,-34.9908C240.4244,-49.4324 181.9035,-70.1435 139.631,-85.1041"/>
<polygon fill="#000000" stroke="#000000" points="138.3237,-81.854 130.0644,-88.4898 140.6592,-88.4529 138.3237,-81.854"/>
<text text-anchor="middle" x="256.0893" y="-56.8" font-family="Times,serif" font-size="14.00" fill="#000000">selects item</text>
</g>
</g>
</svg>
