<?xml version="1.0" encoding="UTF-8" standalone="no"?>
<!DOCTYPE svg PUBLIC "-//W3C//DTD SVG 1.1//EN"
 "http://www.w3.org/Graphics/SVG/1.1/DTD/svg11.dtd">
<!-- Generated by graphviz version 2.40.1 (20161225.0304)
 -->
<!-- Title: foundation&#45;toggleable Pages: 1 -->
<svg width="526pt" height="130pt"
 viewBox="0.00 0.00 525.79 130.00" xmlns="http://www.w3.org/2000/svg" xmlns:xlink="http://www.w3.org/1999/xlink">
<g id="graph0" class="graph" transform="scale(1 1) rotate(0) translate(4 126)">
<title>foundation&#45;toggleable</title>
<polygon fill="#ffffff" stroke="transparent" points="-4,4 -4,-126 521.7915,-126 521.7915,4 -4,4"/>
<!-- foundation&#45;toggleable&#45;control -->
<g id="node1" class="node">
<title>foundation&#45;toggleable&#45;control</title>
<ellipse fill="none" stroke="#000000" cx="116.1939" cy="-18" rx="116.3881" ry="18"/>
<text text-anchor="middle" x="116.1939" y="-13.8" font-family="Times,serif" font-size="14.00" fill="#000000">foundation&#45;toggleable&#45;control</text>
</g>
<!-- foundation&#45;toggleable -->
<g id="node2" class="node">
<title>foundation&#45;toggleable</title>
<ellipse fill="none" stroke="#000000" cx="116.1939" cy="-104" rx="88.3997" ry="18"/>
<text text-anchor="middle" x="116.1939" y="-99.8" font-family="Times,serif" font-size="14.00" fill="#000000">foundation&#45;toggleable</text>
</g>
<!-- foundation&#45;toggleable&#45;control&#45;&gt;foundation&#45;toggleable -->
<g id="edge1" class="edge">
<title>foundation&#45;toggleable&#45;control&#45;&gt;foundation&#45;toggleable</title>
<path fill="none" stroke="#000000" d="M116.1939,-36.2384C116.1939,-47.6403 116.1939,-62.5658 116.1939,-75.506"/>
<polygon fill="#000000" stroke="#000000" points="112.694,-75.7879 116.1939,-85.7879 119.694,-75.7879 112.694,-75.7879"/>
<text text-anchor="middle" x="138.7456" y="-56.8" font-family="Times,serif" font-size="14.00" fill="#000000">controls</text>
</g>
<!-- widget1 -->
<g id="node3" class="node">
<title>widget1</title>
<ellipse fill="none" stroke="#000000" cx="289.1939" cy="-18" rx="38.6955" ry="18"/>
<text text-anchor="middle" x="289.1939" y="-13.8" font-family="Times,serif" font-size="14.00" fill="#000000">widget1</text>
</g>
<!-- widget1&#45;&gt;foundation&#45;toggleable -->
<g id="edge2" class="edge">
<title>widget1&#45;&gt;foundation&#45;toggleable</title>
<path fill="none" stroke="#000000" d="M262.5418,-31.249C234.9368,-44.9717 191.3815,-66.6235 158.9551,-82.743"/>
<polygon fill="#000000" stroke="#000000" points="157.1004,-79.7563 149.7038,-87.3419 160.2164,-86.0245 157.1004,-79.7563"/>
<text text-anchor="middle" x="245.856" y="-56.8" font-family="Times,serif" font-size="14.00" fill="#000000">implements</text>
</g>
<!-- widget2 -->
<g id="node4" class="node">
<title>widget2</title>
<ellipse fill="none" stroke="#000000" cx="384.1939" cy="-18" rx="38.6955" ry="18"/>
<text text-anchor="middle" x="384.1939" y="-13.8" font-family="Times,serif" font-size="14.00" fill="#000000">widget2</text>
</g>
<!-- widget2&#45;&gt;foundation&#45;toggleable -->
<g id="edge3" class="edge">
<title>widget2&#45;&gt;foundation&#45;toggleable</title>
<path fill="none" stroke="#000000" d="M359.7695,-32.0695C339.5461,-43.1997 309.7623,-58.4131 282.1939,-68 254.6583,-77.5754 223.6344,-85.124 195.9228,-90.7831"/>
<polygon fill="#000000" stroke="#000000" points="195,-87.398 185.8756,-92.7828 196.3665,-94.2633 195,-87.398"/>
<text text-anchor="middle" x="345.856" y="-56.8" font-family="Times,serif" font-size="14.00" fill="#000000">implements</text>
</g>
<!-- widget3 -->
<g id="node5" class="node">
<title>widget3</title>
<ellipse fill="none" stroke="#000000" cx="479.1939" cy="-18" rx="38.6955" ry="18"/>
<text text-anchor="middle" x="479.1939" y="-13.8" font-family="Times,serif" font-size="14.00" fill="#000000">widget3</text>
</g>
<!-- widget3&#45;&gt;foundation&#45;toggleable -->
<g id="edge4" class="edge">
<title>widget3&#45;&gt;foundation&#45;toggleable</title>
<path fill="none" stroke="#000000" d="M456.248,-32.6892C437.1792,-44.1788 408.9377,-59.5736 382.1939,-68 327.3984,-85.2648 263.6911,-94.25 212.3626,-98.926"/>
<polygon fill="#000000" stroke="#000000" points="211.927,-95.4506 202.2683,-99.805 212.5342,-102.4242 211.927,-95.4506"/>
<text text-anchor="middle" x="447.856" y="-56.8" font-family="Times,serif" font-size="14.00" fill="#000000">implements</text>
</g>
</g>
</svg>
