<?xml version="1.0" encoding="UTF-8" standalone="no"?>
<!DOCTYPE svg PUBLIC "-//W3C//DTD SVG 1.1//EN"
 "http://www.w3.org/Graphics/SVG/1.1/DTD/svg11.dtd">
<!-- Generated by graphviz version 2.40.1 (20161225.0304)
 -->
<!-- Title: foundation&#45;advancedselect Pages: 1 -->
<svg width="218pt" height="216pt"
 viewBox="0.00 0.00 217.77 216.00" xmlns="http://www.w3.org/2000/svg" xmlns:xlink="http://www.w3.org/1999/xlink">
<g id="graph0" class="graph" transform="scale(1 1) rotate(0) translate(4 212)">
<title>foundation&#45;advancedselect</title>
<polygon fill="#ffffff" stroke="transparent" points="-4,4 -4,-212 213.7695,-212 213.7695,4 -4,4"/>
<!-- foundation&#45;selections -->
<g id="node1" class="node">
<title>foundation&#45;selections</title>
<ellipse fill="none" stroke="#000000" cx="104.8848" cy="-104" rx="86.4791" ry="18"/>
<text text-anchor="middle" x="104.8848" y="-99.8" font-family="Times,serif" font-size="14.00" fill="#000000">foundation&#45;selections</text>
</g>
<!-- foundation&#45;collection -->
<g id="node2" class="node">
<title>foundation&#45;collection</title>
<ellipse fill="none" stroke="#000000" cx="104.8848" cy="-190" rx="86.4704" ry="18"/>
<text text-anchor="middle" x="104.8848" y="-185.8" font-family="Times,serif" font-size="14.00" fill="#000000">foundation&#45;collection</text>
</g>
<!-- foundation&#45;selections&#45;&gt;foundation&#45;collection -->
<g id="edge1" class="edge">
<title>foundation&#45;selections&#45;&gt;foundation&#45;collection</title>
<path fill="none" stroke="#000000" d="M104.8848,-122.2384C104.8848,-133.6403 104.8848,-148.5658 104.8848,-161.506"/>
<polygon fill="#000000" stroke="#000000" points="101.3849,-161.7879 104.8848,-171.7879 108.3849,-161.7879 101.3849,-161.7879"/>
<text text-anchor="middle" x="126.2676" y="-142.8" font-family="Times,serif" font-size="14.00" fill="#000000">extends</text>
</g>
<!-- foundation&#45;advancedselect -->
<g id="node3" class="node">
<title>foundation&#45;advancedselect</title>
<ellipse fill="none" stroke="#000000" cx="104.8848" cy="-18" rx="104.7697" ry="18"/>
<text text-anchor="middle" x="104.8848" y="-13.8" font-family="Times,serif" font-size="14.00" fill="#000000">foundation&#45;advancedselect</text>
</g>
<!-- foundation&#45;advancedselect&#45;&gt;foundation&#45;selections -->
<g id="edge2" class="edge">
<title>foundation&#45;advancedselect&#45;&gt;foundation&#45;selections</title>
<path fill="none" stroke="#000000" d="M104.8848,-36.2384C104.8848,-47.6403 104.8848,-62.5658 104.8848,-75.506"/>
<polygon fill="#000000" stroke="#000000" points="101.3849,-75.7879 104.8848,-85.7879 108.3849,-75.7879 101.3849,-75.7879"/>
<text text-anchor="middle" x="137.5469" y="-56.8" font-family="Times,serif" font-size="14.00" fill="#000000">implements</text>
</g>
</g>
</svg>
